<?xml version="1.0" encoding="utf-8"?>
<!-- Generator: Adobe Adobe Illustrator 24.2.0, SVG Export Plug-In . SVG Version: 6.00 Build 0)  -->
<svg version="1.1" id="Layer_1" xmlns="http://www.w3.org/2000/svg" xmlns:xlink="http://www.w3.org/1999/xlink" x="0px" y="0px"
	 viewBox="0 0 1202 1190.55" style="enable-background:new 0 0 1202 1190.55;" xml:space="preserve">
<style type="text/css">
	.st0{fill:#FFFFFF;}
	.st1{fill:#28235C;}
	.st2{fill:#28245C;}
	.st3{fill:#10100F;}
	.st4{fill:none;stroke:#0F0F0E;stroke-miterlimit:10;}
	.st5{font-family:'Alfarn';}
	.st6{font-size:51.5032px;}
	.st7{letter-spacing:15.99;}
</style>
<g>
	<rect class="st0" width="1202" height="1190.55"/>
</g>
<g>
	<path class="st1" d="M737.15,637.55c0,40.8,0,81.16,0,121.8c-27.58,0-54.93,0-82.61,0c0-64.41,0-128.84,0-194.46
		c-27.15,22.65-53.52,44.63-80.34,67.02c-26.41-22.03-52.8-44.04-79.91-66.65c0,65.19,0,129.55,0,194.13c-27.86,0-55.22,0-82.84,0
		c0-110.53,0-220.98,0-331.77c1.28-0.09,2.51-0.26,3.74-0.28c10.48-0.01,20.98-0.17,31.44,0.13c2.44,0.07,5.33,1.14,7.19,2.73
		c38.92,33.5,77.73,67.14,116.55,100.75c0.32,0.28,0.69,0.48,1.38,0.93c10.14-8.4,20.32-16.85,30.51-25.31
		c31.06-25.8,62.1-51.62,93.19-77.39c1.05-0.86,2.48-1.76,3.73-1.77c12.46-0.13,24.93-0.08,37.96-0.08
		C737.15,497.49,737.15,567.3,737.15,637.55z"/>
	<path class="st1" d="M351.89,427.34c10.47,0,20.49,0,30.84,0c0,110.78,0,221.35,0,332.1c-26.44,0-52.81,0-79.82,0
		c0-1.49,0-3.03,0-4.55c0-31.66-0.06-63.33,0.06-94.98c0.01-3.69-0.92-6.56-3.21-9.46c-27.8-34.95-55.5-69.98-83.21-105
		c-0.71-0.9-1.34-1.85-2.27-3.11c5.81-7.36,11.58-14.71,17.39-22.03c23.85-29.98,47.73-59.91,71.49-89.94
		c1.82-2.32,3.68-3.11,6.52-3.1C323.62,427.41,337.53,427.34,351.89,427.34z"/>
	<path class="st2" d="M945.22,582.56c17.98,14.21,35.76,28.71,54.07,42.45c6.36,4.78,8.94,9.59,8.82,17.79
		c-0.54,34.71-0.23,69.44-0.23,104.15c0,1.59,0,3.16,0,5.05c-81.51,0-162.7,0-244.5,0c0-1.39,0-2.79,0-4.19
		c0-37.19,0.05-74.37-0.06-111.56c-0.01-3.07,0.89-4.96,3.33-6.85c19.35-15.03,38.58-30.23,58.23-45.67
		c1.12-0.08,1.87,0.13,2.51,0.75c-0.09,27.04-0.09,53.66-0.09,80.27c39.27,0,77.89,0,116.81,0c0-13.37,0.04-26.42-0.01-39.45
		c-0.05-14.21-0.16-28.42-0.02-42.72C944.62,582.54,944.92,582.54,945.22,582.56z"/>
	<path class="st2" d="M246.16,625.96c9.63,12.95,19.05,25.66,28.92,38.97c-49.28,0-97.7,0-146.36,0c0-79.1,0-158.03,0-237.29
		c47.94,0,95.81,0,144.29,0c-0.79,1.22-1.38,2.26-2.11,3.19c-27.88,36-55.72,72.02-83.75,107.89c-2.49,3.19-2.27,4.92,0.05,8
		C206.9,572.96,226.4,599.37,246.16,625.96z"/>
	<path class="st2" d="M795.66,431.59c10.17,0,19.93,0,30.31,0c0,1.64,0,3.02,0,4.39c0,37.31-0.02,74.62,0.06,111.93
		c0.01,2.88-0.8,4.68-3.17,6.47c-18.98,14.3-37.84,28.77-56.74,43.19c-1.1,0.83-2.25,1.6-3.82,2.71c0-56.41,0-112.19,0-168.69
		C773.28,431.59,784.26,431.59,795.66,431.59z"/>
	<path class="st2" d="M969.72,431.59c12.87,0,25.31,0,37.96,0c0,56.3,0,112.13,0,168.72c-5.42-4.1-10.43-7.84-15.41-11.64
		c-15.12-11.54-30.26-23.04-45.29-34.7c-1.35-1.06-2.75-3.14-2.76-4.74c-0.15-38.47-0.12-76.95-0.11-115.42
		c0-0.56,0.14-1.11,0.27-2.22C952.75,431.59,961.03,431.59,969.72,431.59z"/>
	<g>
		<path class="st3" d="M944.58,577.17c-12.11-23.56-24.28-47.09-36.42-70.64c-3.49-6.76-7.14-13.73-10.68-20.58
			c-1.28-2.49-1.31-5.54,0.04-7.99c0.68-1.23,1.19-2.51,1.7-3.17c7.53-10.05,13.47-31.15,7.86-35.41
			c-11.57-8.77-21.21-8.98-33.71-6.15c-15.36,3.48-19.78,7.71-12.99,25.84c4.46,11.91,3.81,11.47,6.72,16.75
			c1.24,2.25,2.99,5.33,1.91,7.69c-14.56,31.56-28.98,63.18-43.39,94.82c-0.42,0.91-0.53,1.96-0.55,3c-0.02,0.67,0.44,1.27,1.1,1.43
			c0.41,0.09,0.78,0.2,1.13,0.29c0.15,0.01,0.3,0.04,0.44,0.05c38.44-0.44,76.88-0.89,115.95-1.4c0.94-0.07,1.24-0.07,1.68-0.36
			C945.2,579.74,945.16,578.32,944.58,577.17z M877.2,449.64c3.63-3.9,9.3-4.18,12.81-1.05c4.64,4.14,2.04,9.79-0.14,12.51
			c-0.1,0.42-0.23,0.83-0.44,1.18c-0.04,0.07-0.1,0.12-0.14,0.19c-0.59,2.04-2.2,3.7-4.37,4.01c-2.61,0.37-4.74-1.23-5.59-3.53
			c-0.38-0.36-0.71-0.75-0.97-1.23c-0.14-0.25-0.25-0.52-0.33-0.78C875.15,458.06,875.12,451.88,877.2,449.64z M843,549.64
			c0.83-0.42,2.28-0.74,3.19-0.74c16.05-0.11,32.1-0.07,48.13-0.07c10.57,0,20.25-0.07,29.94,0.08c0.09,0,0.17,0.03,0.25,0.07
			c3.33,1.65,3.29,1.75-0.25,2.96l0,0c-26.38,0.08-52.75,0.08-79.13,0c-0.32-0.08-0.64-0.16-0.96-0.24
			C842.08,550.59,841.88,550.21,843,549.64z M860.61,558.35c-2.36,3.93-4.63,7.71-6.97,11.61c-0.68,1.12-2.22,1.12-2.87-0.01l0,0
			c-0.01-0.03-0.04-0.07-0.05-0.09c-2.03-4.07-3.87-7.79-5.78-11.64c-0.6-1.22,0.21-2.69,1.49-2.69c3.44,0,9.2,0,12.76,0
			C860.53,555.52,861.34,557.13,860.61,558.35z M891.08,558.29c-2.22,4.01-4.41,7.95-6.72,12.12c-0.63,1.12-2.12,1.2-2.86,0.15
			c-1.05-1.51-2.01-2.9-2.97-4.3c-1.74-2.79-3.3-5.29-4.94-7.88c-0.76-1.22,0.04-2.84,1.4-2.84c3.99,0,10.74,0,14.63,0
			C890.94,555.53,891.76,557.08,891.08,558.29z M926.15,558.39c-2.82,4.27-5.57,8.43-8.47,12.83c-0.65,0.98-2,1.05-2.72,0.12
			c-1.47-1.88-2.85-3.64-4.21-5.4c-1.97-2.62-3.77-4.99-5.63-7.46c-0.9-1.19-0.11-2.98,1.32-2.98h18.34
			C926.15,555.5,926.95,557.17,926.15,558.39z"/>
		<ellipse class="st4" cx="883.49" cy="455.11" rx="8.09" ry="8.6"/>
		<path class="st4" d="M887.36,463.93c0.06-0.58,0.46-1.08,0.9-1.43c0.44-0.34,0.96-0.6,1.42-0.91c1.74-1.23,2.56-3.51,3.07-5.68
			c0.11-0.5,0.22-1.02,0.16-1.52c-0.05-0.45-0.22-0.87-0.39-1.3c-0.44-1.06-0.87-2.13-1.32-3.19c-0.26-0.61-0.52-1.24-0.92-1.75
			c-0.43-0.56-1.06-1.02-1.15-1.73"/>
		<path class="st4" d="M892.3,455.96c0.02-0.94,0.01-1.87-0.04-2.8c-0.01,0.16-0.02,0.3-0.04,0.46c-0.28-1.69-2.02-2.74-2.38-4.41
			c-0.05-0.25-0.07-0.52-0.18-0.74c-0.14-0.3-0.41-0.52-0.63-0.75s-0.42-0.56-0.37-0.89"/>
		<path class="st4" d="M889.31,463.22c-2.2,2.09-5.35,2.91-8.25,2.37c-0.63-0.12-1.26-0.29-1.8-0.65c-1.01-0.66-1.64-1.93-1.59-3.19
			"/>
		<path class="st4" d="M881.81,466.33c1.05,0.15,2.11,0.05,3.14-0.11c1.13-0.16,2.27-0.38,3.31-0.89c1.05-0.5,2-1.31,2.51-2.39"/>
		<path class="st4" d="M890.11,462.21c-0.54,0.62-1.32,0.95-2.07,1.22c-1.1,0.4-2.22,0.71-3.35,0.97c-1.27,0.28-2.61,0.46-3.84,0.05
			c-1.48-0.49-2.62-1.73-3.68-2.94"/>
		<path class="st4" d="M891.81,462.31c-0.96,0.85-2.16,1.31-3.34,1.72c-0.97,0.34-1.96,0.66-2.98,0.74
			c-1.06,0.07-2.12-0.13-3.15-0.34c-0.48-0.09-0.97-0.2-1.43-0.38c-0.81-0.34-1.48-0.99-2.22-1.47c-0.67-0.44-1.4-0.74-2.17-0.91"/>
	</g>
</g>
<text transform="matrix(0 1.0006 -1 0 1029.4364 446.8284)" class="st5 st6 st7">driver</text>
<g>
	<path class="st1" d="M737.15,637.55c0,40.8,0,81.16,0,121.8c-27.58,0-54.93,0-82.61,0c0-64.41,0-128.84,0-194.46
		c-27.15,22.65-53.52,44.63-80.34,67.02c-26.41-22.03-52.8-44.04-79.91-66.65c0,65.19,0,129.55,0,194.13c-27.86,0-55.22,0-82.84,0
		c0-110.53,0-220.98,0-331.77c1.28-0.09,2.51-0.26,3.74-0.28c10.48-0.01,20.98-0.17,31.44,0.13c2.44,0.07,5.33,1.14,7.19,2.73
		c38.92,33.5,77.73,67.14,116.55,100.75c0.32,0.28,0.69,0.48,1.38,0.93c10.14-8.4,20.32-16.85,30.51-25.31
		c31.06-25.8,62.1-51.62,93.19-77.39c1.05-0.86,2.48-1.76,3.73-1.77c12.46-0.13,24.93-0.08,37.96-0.08
		C737.15,497.49,737.15,567.3,737.15,637.55z"/>
	<path class="st1" d="M351.89,427.34c10.47,0,20.49,0,30.84,0c0,110.78,0,221.35,0,332.1c-26.44,0-52.81,0-79.82,0
		c0-1.49,0-3.03,0-4.55c0-31.66-0.06-63.33,0.06-94.98c0.01-3.69-0.92-6.56-3.21-9.46c-27.8-34.95-55.5-69.98-83.21-105
		c-0.71-0.9-1.34-1.85-2.27-3.11c5.81-7.36,11.58-14.71,17.39-22.03c23.85-29.98,47.73-59.91,71.49-89.94
		c1.82-2.32,3.68-3.11,6.52-3.1C323.62,427.41,337.53,427.34,351.89,427.34z"/>
	<path class="st2" d="M945.22,582.56c17.98,14.21,35.76,28.71,54.07,42.45c6.36,4.78,8.94,9.59,8.82,17.79
		c-0.54,34.71-0.23,69.44-0.23,104.15c0,1.59,0,3.16,0,5.05c-81.51,0-162.7,0-244.5,0c0-1.39,0-2.79,0-4.19
		c0-37.19,0.05-74.37-0.06-111.56c-0.01-3.07,0.89-4.96,3.33-6.85c19.35-15.03,38.58-30.23,58.23-45.67
		c1.12-0.08,1.87,0.13,2.51,0.75c-0.09,27.04-0.09,53.66-0.09,80.27c39.27,0,77.89,0,116.81,0c0-13.37,0.04-26.42-0.01-39.45
		c-0.05-14.21-0.16-28.42-0.02-42.72C944.62,582.54,944.92,582.54,945.22,582.56z"/>
	<path class="st2" d="M246.16,625.96c9.63,12.95,19.05,25.66,28.92,38.97c-49.28,0-97.7,0-146.36,0c0-79.1,0-158.03,0-237.29
		c47.94,0,95.81,0,144.29,0c-0.79,1.22-1.38,2.26-2.11,3.19c-27.88,36-55.72,72.02-83.75,107.89c-2.49,3.19-2.27,4.92,0.05,8
		C206.9,572.96,226.4,599.37,246.16,625.96z"/>
	<path class="st2" d="M795.66,431.59c10.17,0,19.93,0,30.31,0c0,1.64,0,3.02,0,4.39c0,37.31-0.02,74.62,0.06,111.93
		c0.01,2.88-0.8,4.68-3.17,6.47c-18.98,14.3-37.84,28.77-56.74,43.19c-1.1,0.83-2.25,1.6-3.82,2.71c0-56.41,0-112.19,0-168.69
		C773.28,431.59,784.26,431.59,795.66,431.59z"/>
	<path class="st2" d="M969.72,431.59c12.87,0,25.31,0,37.96,0c0,56.3,0,112.13,0,168.72c-5.42-4.1-10.43-7.84-15.41-11.64
		c-15.12-11.54-30.26-23.04-45.29-34.7c-1.35-1.06-2.75-3.14-2.76-4.74c-0.15-38.47-0.12-76.95-0.11-115.42
		c0-0.56,0.14-1.11,0.27-2.22C952.75,431.59,961.03,431.59,969.72,431.59z"/>
	<g>
		<path class="st3" d="M944.58,577.17c-12.11-23.56-24.28-47.09-36.42-70.64c-3.49-6.76-7.14-13.73-10.68-20.58
			c-1.28-2.49-1.31-5.54,0.04-7.99c0.68-1.23,1.19-2.51,1.7-3.17c7.53-10.05,13.47-31.15,7.86-35.41
			c-11.57-8.77-21.21-8.98-33.71-6.15c-15.36,3.48-19.78,7.71-12.99,25.84c4.46,11.91,3.81,11.47,6.72,16.75
			c1.24,2.25,2.99,5.33,1.91,7.69c-14.56,31.56-28.98,63.18-43.39,94.82c-0.42,0.91-0.53,1.96-0.55,3c-0.02,0.67,0.44,1.27,1.1,1.43
			c0.41,0.09,0.78,0.2,1.13,0.29c0.15,0.01,0.3,0.04,0.44,0.05c38.44-0.44,76.88-0.89,115.95-1.4c0.94-0.07,1.24-0.07,1.68-0.36
			C945.2,579.74,945.16,578.32,944.58,577.17z M877.2,449.64c3.63-3.9,9.3-4.18,12.81-1.05c4.64,4.14,2.04,9.79-0.14,12.51
			c-0.1,0.42-0.23,0.83-0.44,1.18c-0.04,0.07-0.1,0.12-0.14,0.19c-0.59,2.04-2.2,3.7-4.37,4.01c-2.61,0.37-4.74-1.23-5.59-3.53
			c-0.38-0.36-0.71-0.75-0.97-1.23c-0.14-0.25-0.25-0.52-0.33-0.78C875.15,458.06,875.12,451.88,877.2,449.64z M843,549.64
			c0.83-0.42,2.28-0.74,3.19-0.74c16.05-0.11,32.1-0.07,48.13-0.07c10.57,0,20.25-0.07,29.94,0.08c0.09,0,0.17,0.03,0.25,0.07
			c3.33,1.65,3.29,1.75-0.25,2.96l0,0c-26.38,0.08-52.75,0.08-79.13,0c-0.32-0.08-0.64-0.16-0.96-0.24
			C842.08,550.59,841.88,550.21,843,549.64z M860.61,558.35c-2.36,3.93-4.63,7.71-6.97,11.61c-0.68,1.12-2.22,1.12-2.87-0.01l0,0
			c-0.01-0.03-0.04-0.07-0.05-0.09c-2.03-4.07-3.87-7.79-5.78-11.64c-0.6-1.22,0.21-2.69,1.49-2.69c3.44,0,9.2,0,12.76,0
			C860.53,555.52,861.34,557.13,860.61,558.35z M891.08,558.29c-2.22,4.01-4.41,7.95-6.72,12.12c-0.63,1.12-2.12,1.2-2.86,0.15
			c-1.05-1.51-2.01-2.9-2.97-4.3c-1.74-2.79-3.3-5.29-4.94-7.88c-0.76-1.22,0.04-2.84,1.4-2.84c3.99,0,10.74,0,14.63,0
			C890.94,555.53,891.76,557.08,891.08,558.29z M926.15,558.39c-2.82,4.27-5.57,8.43-8.47,12.83c-0.65,0.98-2,1.05-2.72,0.12
			c-1.47-1.88-2.85-3.64-4.21-5.4c-1.97-2.62-3.77-4.99-5.63-7.46c-0.9-1.19-0.11-2.98,1.32-2.98h18.34
			C926.15,555.5,926.95,557.17,926.15,558.39z"/>
		<ellipse class="st4" cx="883.49" cy="455.11" rx="8.09" ry="8.6"/>
		<path class="st4" d="M887.36,463.93c0.06-0.58,0.46-1.08,0.9-1.43c0.44-0.34,0.96-0.6,1.42-0.91c1.74-1.23,2.56-3.51,3.07-5.68
			c0.11-0.5,0.22-1.02,0.16-1.52c-0.05-0.45-0.22-0.87-0.39-1.3c-0.44-1.06-0.87-2.13-1.32-3.19c-0.26-0.61-0.52-1.24-0.92-1.75
			c-0.43-0.56-1.06-1.02-1.15-1.73"/>
		<path class="st4" d="M892.3,455.96c0.02-0.94,0.01-1.87-0.04-2.8c-0.01,0.16-0.02,0.3-0.04,0.46c-0.28-1.69-2.02-2.74-2.38-4.41
			c-0.05-0.25-0.07-0.52-0.18-0.74c-0.14-0.3-0.41-0.52-0.63-0.75s-0.42-0.56-0.37-0.89"/>
		<path class="st4" d="M889.31,463.22c-2.2,2.09-5.35,2.91-8.25,2.37c-0.63-0.12-1.26-0.29-1.8-0.65c-1.01-0.66-1.64-1.93-1.59-3.19
			"/>
		<path class="st4" d="M881.81,466.33c1.05,0.15,2.11,0.05,3.14-0.11c1.13-0.16,2.27-0.38,3.31-0.89c1.05-0.5,2-1.31,2.51-2.39"/>
		<path class="st4" d="M890.11,462.21c-0.54,0.62-1.32,0.95-2.07,1.22c-1.1,0.4-2.22,0.71-3.35,0.97c-1.27,0.28-2.61,0.46-3.84,0.05
			c-1.48-0.49-2.62-1.73-3.68-2.94"/>
		<path class="st4" d="M891.81,462.31c-0.96,0.85-2.16,1.31-3.34,1.72c-0.97,0.34-1.96,0.66-2.98,0.74
			c-1.06,0.07-2.12-0.13-3.15-0.34c-0.48-0.09-0.97-0.2-1.43-0.38c-0.81-0.34-1.48-0.99-2.22-1.47c-0.67-0.44-1.4-0.74-2.17-0.91"/>
	</g>
</g>
</svg>
