<?xml version="1.0" encoding="utf-8"?>
<!-- Generator: Adobe Adobe Illustrator 24.2.0, SVG Export Plug-In . SVG Version: 6.00 Build 0)  -->
<svg version="1.1" id="Layer_1" xmlns="http://www.w3.org/2000/svg" xmlns:xlink="http://www.w3.org/1999/xlink" x="0px" y="0px"
	 viewBox="0 0 5000 5000" style="enable-background:new 0 0 5000 5000;" xml:space="preserve">
<style type="text/css">
	.st0{display:none;}
	.st1{fill:#0F0F0E;}
	.st2{fill:none;stroke:#000000;stroke-width:0.5862;stroke-miterlimit:5.8623;}
	.st3{display:none;stroke:#000000;stroke-width:50.4159;stroke-linecap:square;stroke-miterlimit:5.8623;}
</style>
<g id="Layer_2" class="st0">
</g>
<g>
	<g>
		<g>
			<g>
				<path class="st1" d="M1445.16,3226c-0.06-1.23,0.01-2.47-0.21-3.69c-0.02-0.07-0.04-0.19-0.06-0.31
					c0.08-0.67-0.06-1.36-0.1-2.03c0-1.39-0.11-2.8-0.27-4.18c0.03-0.95-1.03-1.71-1.9-1.19c-0.72,0.41-0.71,1.31-0.73,2.03
					c0,1.95-0.22,3.91,0.05,5.85c0.09,0.41,0.15,0.99,0.21,1.6c-0.02,0.1-0.04,0.2-0.06,0.33c0.05,1.83,0.12,1.3,0.28,2.39
					c0.31,1.05,1.15,1.32,1.84,1.06c0.01,0.04,0.02,0.08,0.04,0.11c0.09,0.28,0.19,0.58,0.28,0.84c-0.01-0.06-0.01-0.13-0.02-0.19
					c-0.03-0.29-0.04-0.58-0.06-0.88C1444.94,3227.42,1445.29,3226.81,1445.16,3226z"/>
				<path class="st1" d="M1418.23,3191.4c-7.1,0.59-14.17,3.61-19.92,9C1403.24,3194.91,1410.29,3191.4,1418.23,3191.4z"/>
				<path class="st1" d="M1401.11,3239.07c-5.93-4.96-9.8-12.32-9.8-20.67c0-4.41,1.16-8.51,3.03-12.19
					c-3.53,8.81-2.12,23.09,5.71,30.51C1400.32,3237.52,1400.67,3238.31,1401.11,3239.07z"/>
				<path class="st1" d="M1442.23,3203.52c-0.13-0.35-0.25-0.7-0.39-1.07c-0.01-0.02-0.01-0.05-0.02-0.06
					c-0.02-0.05-0.04-0.09-0.05-0.15c-0.18-0.7-1.05-0.76-1.47-0.35c-0.24-0.56-0.53-1.2-0.84-1.86c0.22,0.14,0.43,0.28,0.66,0.4
					c-0.3-0.27-0.58-0.54-0.86-0.82c-0.08-0.16-0.16-0.33-0.24-0.5c0.77,0.26,1.58,0.42,2.39,0.47c-1.01-0.34-2.02-0.8-2.88-1.44
					c-0.04-0.06-0.07-0.13-0.1-0.19c0.39-0.01,0.73-0.04,1.13-0.17c0.3,0.02,0.59,0.03,0.89,0.03c0.51,0.17,1,0.29,1.32,0.3
					c2.1,0.48,4.31,0.2,6.33-0.48c-1.56,0.19-3.55,0.09-4.99-0.08c0.95-0.18,1.94-0.1,2.87-0.06c-0.88-0.18-1.74-0.51-2.64-0.57
					c-1.59,0.01-3.1-0.38-4.61-0.8c0.61,0.02,1.23,0.02,1.84-0.03c1.84-0.25,1.29-0.17,2.48-0.28c0.69-0.06,1.46-0.23,1.86-0.85
					c0.94-1.07,0.3-2.93-1.09-3.25c-2.87-0.44-3.28,0.2-5.41,0.05c-0.07-0.01-0.15-0.02-0.24-0.03c-2.08-0.42-4.18-0.59-6.3-0.55
					c-1-0.01-2.53-0.42-4.83-0.47c-2.68,0.11-5.35,0.14-8.04,0.17c-2.15,0.09-4.25,0.6-6.38,0.86c-2.6,0.34-5.13,0.85-7.58,1.58
					c0.02-0.05,0.04-0.09,0.05-0.14c0.18-0.59-0.53-1.1-1.06-0.78c-0.52,0.45-0.26,0.4-0.53,0.88c-0.08,0.2-0.15,0.4-0.23,0.6
					c-0.22,0.08-0.44,0.17-0.66,0.26c-0.14-0.02-0.29,0.01-0.43,0.08c-0.11-0.01-0.22-0.01-0.32-0.02c-0.2-0.01-0.36-0.03-0.5-0.03
					c0.22,0.05,0.43,0.1,0.65,0.16c-0.03,0.02-0.05,0.04-0.08,0.07c-0.49,0.2-0.97,0.4-1.45,0.62c-0.04-0.18-0.15-0.35-0.32-0.45
					c-0.72-0.32-0.97,0.2-1.12,0.75c-0.04-0.01-0.06-0.03-0.1-0.04c-0.51-0.09-0.75,0.37-0.9,0.78c-0.06,0.08-0.11,0.18-0.15,0.3
					c-0.27,0.16-0.53,0.33-0.8,0.49c-0.31,0.12-0.62,0.24-0.93,0.36c-1.15,0.28-2.37,0.31-3.55,0.4c0.97,0.08,1.97,0.24,2.96,0.24
					c-0.26,0.18-0.52,0.35-0.78,0.54c0.36-0.19,0.74-0.37,1.12-0.55c0.39-0.02,0.77-0.07,1.15-0.16c0.13-0.01,0.26-0.03,0.38-0.04
					c-0.33,0.87-0.64,1.74-0.85,2.65l0,0c-0.06,0.22-0.13,0.43-0.18,0.65c-0.14-0.13-0.32-0.19-0.53-0.17
					c-0.06,0-0.11,0.02-0.16,0.04c-0.02,0.01-0.04,0-0.05,0.01c-0.01,0.01-0.02,0.02-0.02,0.02c-0.05,0.03-0.09,0.07-0.14,0.11
					c-0.03,0.03-0.05,0.05-0.08,0.08c-0.01,0.01-0.01,0.02-0.02,0.03c-0.14,0.17-0.24,0.4-0.33,0.65c-0.04,0.1-0.08,0.19-0.11,0.26
					c-0.48,1.2-1.09,2.4-1.62,3.89c-0.8,2.8-1,5.76-0.95,8.66c-0.09,0.24-0.2,0.47-0.29,0.72c-0.78,2.04-1.75,4.08-1.83,6.3
					c-0.03,0.71-0.39,2.13,0.8,1.94c0.44-0.11,0.73-0.32,0.93-0.58c0.02,0.87,0.06,1.74,0.15,2.62c0.11,0.66,0.19,2.33,0.44,3.74
					c0.48,3.58,1.29,7.14,3.03,10.3c0.48,0.81,1.22,1.4,1.68,1.02c0.13,0.33,0.27,0.65,0.41,0.98l0,0c0.11,0.42,0.65,0.64,1.03,0.41
					c0.74-0.53,0.04-1.57,0.02-2.29c-0.1-0.45-0.18-0.9-0.27-1.35c0.04,0.03,0.08,0.07,0.12,0.09c0.03,0.01,0.06,0,0.1,0
					c0.12,0.58,0.24,1.16,0.4,1.73c0.09,0.45,0.54,0.87,1.02,0.64c0.08-0.03,0.15-0.08,0.21-0.13c0.14,0.05,0.31,0.06,0.5,0.01
					c0.2-0.07,0.35-0.25,0.4-0.45c-0.02-1.11-0.55-2.75-0.93-4.28c-0.39-2.07-0.76-4.39-1.11-6.15c-0.37-3.87-0.6-8.34-0.6-12.1
					c-0.03-1.34-0.06-2.69-0.04-4.03c0.07-0.72,0.13-1.45,0.19-2.17c0.01-0.11,0.02-0.23,0.04-0.34c0.52-2.01,1.16-3.74,1.95-5.44
					c0.28-0.74,0.52-1.49,0.74-2.25c0.09-0.23,0.18-0.46,0.26-0.69c0.33-1.03,0.64-1.94,0.95-2.8c0.56-0.29,1.06-0.73,1.6-1.02
					c0.44-0.3,0.97-0.62,1.49-0.93c0.05-0.02,0.11-0.03,0.17-0.04c1.14,0.02,2.27,0.21,3.42,0.15c1.71-0.08,1.73,0.07,3.47,0.25
					c0.82,0.09,1.63-0.03,2.45-0.04c0.57-0.01,0.7,0.11,1.83,0.22c2.22-0.01,2.56,0.05,4.44,0.18c1.58-0.14,2.97-0.03,4.52-0.04
					c1.48-0.18,2.98,0.12,4.45-0.16c0.31-0.03,0.61-0.02,0.92-0.03c0.86,0,1.73-0.08,2.58-0.26c0.38-0.09,0.79-0.12,1.22-0.15
					c0,0,0.01,0.01,0.01,0.02c0.34,0.33,0.72,0.63,1.17,0.81c0.25,0.09,0.54,0.22,0.83,0.28c0.02,0.02,0.03,0.04,0.05,0.05
					c0.03,0.04,0.05,0.08,0.08,0.12c0.02,0.18,0.06,0.33,0.13,0.41c0.11,0.39,0.4,0.54,0.62,0.49c0.12,0.13,0.29,0.25,0.47,0.18
					c0.02-0.01,0.03-0.03,0.04-0.03c0.01,0.03,0.03,0.06,0.04,0.08c0.05,0.02,0.1,0.02,0.14,0.03c0.23,1.46,0.4,2.84,1.01,4.43
					c0.37,0.99,1.14,3.2,2.28,4.75c0.51,1,2.14,0.97,2.37-0.21c0.13-1.17-0.7-2.54-1.17-3.6
					C1443.11,3205.31,1442.61,3204.37,1442.23,3203.52z M1396.04,3237.38c-0.73-2.07-1.28-4.14-1.7-6.22
					c0.17-0.21,0.28-0.44,0.33-0.69c0.02-0.01,0.04-0.02,0.06-0.03c0.29,2.16,0.71,4.3,1.31,6.4c0.05,0.29,0.1,0.57,0.14,0.85
					C1396.1,3237.54,1396.05,3237.42,1396.04,3237.38z"/>
				<path class="st1" d="M1443.44,3242.61c-0.17-0.1-0.34-0.14-0.51-0.15c-0.05-0.03-0.09-0.06-0.15-0.08
					c-0.74-0.21-1.1-0.02-1.38,0.23c-0.32,0.16-0.78,0.52-1.28,0.94c-0.02,0.02-0.05,0.03-0.07,0.05c-0.06-0.04-0.12-0.08-0.2-0.11
					c-0.13-0.01-0.25,0.02-0.37,0.03c0.04-0.06,0.07-0.13,0.08-0.22c0.06-0.31-0.15-0.63-0.44-0.75c-0.07-0.03-0.15-0.04-0.22-0.06
					c0.1-0.17,0.12-0.37-0.01-0.58c-0.37-0.54-0.94-0.22-1.29,0.16c-0.35,0.11-0.72,0.4-1.02,0.49c-0.13,0.06-0.25,0.15-0.38,0.23
					c-2.12,0.23-3.96,0.33-5.83,0.87c-0.1,0.03-0.2,0.04-0.29,0.07c0,0,0,0.01,0,0.01c-0.08,0.03-0.16,0.04-0.23,0.07
					c-0.07,0.05-0.12,0.1-0.17,0.16c-2.68-0.19-3.79-0.49-6.66-0.73c-2.27-0.12-4.42,0-6.49,0.17c-0.67-0.05-1.62,0-1.85,0.3
					c-1.13-0.12-2.25-0.21-3.4-0.24c-2.49-0.28-5.44-0.75-8.08-0.53c-0.8,0.12-0.28,0.77,0.3,0.79c0.14,0.01,0.29,0.02,0.43,0.03
					c-0.08,0.08-0.11,0.17-0.13,0.27c-0.72,0.06-1.32,0.16-1.67,0.32c-0.88,0.48-1.06,1.77-0.32,2.46c0.4,0.34,0.87,0.55,1.37,0.7
					c-0.52,0.11-0.94,0.23-1.25,0.37c-3.65,1.27-4.56,6.36-1.81,8.95c2.59,2.47,6.6,1.55,9.88,1.75c4.81-0.1,9.63-0.16,14.44-0.4
					c-0.05,0.2-0.09,0.4-0.15,0.6c-1.06,3.55-0.25,4.36,2.81,6.16c-3.48-2.81-2.59-3.48-0.93-6.87c3.09-0.26,6.17-0.67,9.23-1.15
					c0.24-0.03,0.48-0.07,0.73-0.11c0.18-0.01,0.36-0.05,0.54-0.08c0.12-0.02,0.24-0.03,0.36-0.05c0.09-0.01,0.19-0.03,0.29-0.04
					c2-0.34,3.48-2.09,3.71-4.01c0.03-0.11,0.05-0.22,0.08-0.33c0.17,0.01,0.35,0.01,0.5,0.03c-0.16-0.04-0.33-0.07-0.49-0.11
					c0.27-1.45-0.03-2.98-1.09-4.19c-0.03-0.04-0.05-0.07-0.08-0.1c0.5-0.36,1-0.71,1.47-1.1c0.13-0.03,0.25-0.04,0.38-0.08
					c-0.1,0.01-0.2,0-0.3,0c0.13-0.11,0.26-0.22,0.39-0.35C1442.72,3245.37,1445.17,3243.9,1443.44,3242.61z M1438.12,3245.14
					c-0.07-0.12-0.2-0.21-0.36-0.29c0.48-0.24,0.97-0.49,1.38-0.62C1438.78,3244.5,1438.44,3244.81,1438.12,3245.14z
					 M1422.74,3244.49c0.82,0.08,1.61,0.18,2.43,0.28c-0.17,0.01-0.33,0.01-0.5,0.02c-0.48-0.12-1.22-0.07-1.98,0
					C1422.74,3244.68,1422.75,3244.58,1422.74,3244.49z M1412.54,3246.36c-0.1-0.13-0.22-0.23-0.36-0.31
					c-0.04-0.07-0.08-0.15-0.13-0.21c0.03-0.13,0.04-0.26,0.04-0.4c1.45-0.14,3.21-0.3,4.84-0.41c-0.49,0.1-1.02,0.22-1.59,0.36
					c-0.36,0.09-0.57,0.4-0.59,0.73c-0.13,0.01-0.27,0.03-0.41,0.04C1413.73,3246.24,1413.14,3246.3,1412.54,3246.36z"/>
				<path d="M1832.76,3807.76c0.41-25.76-8.19-40.88-29.33-55.87c-60.92-43.16-120.04-88.69-179.85-133.3
					c-1.02-0.04-2.01-0.04-3.81,0.12c-0.45,44.9-0.08,89.52,0.08,134.13c0.16,40.92,0.04,81.87,0.04,123.87
					c-129.46,0-257.94,0-388.55,0c0-83.58,0-167.16,0.29-252.06c-2.13-1.95-4.63-2.62-8.36-2.37
					c-65.39,48.48-129.34,96.2-193.7,143.39c-8.11,5.94-11.1,11.88-11.06,21.52c0.37,116.77,0.21,233.53,0.21,350.3
					c0,4.4,0,8.81,0,13.17c272.08,0,542.14,0,813.27,0c0-5.94,0-10.88,0-15.87C1831.98,4025.8,1830.96,3916.76,1832.76,3807.76z"/>
				<path d="M1216.59,3526.44c7.87-5.75,10.57-11.54,10.53-20.83c-0.29-120.13-0.21-240.3-0.21-360.42c0-4.43,0-8.86,0-14.14
					c-34.54,0-66.98,0-100.83,0c-37.94,0-74.44,0-110.94,0c0,181.94,0,361.57,0,543.21c5.2-3.58,9.05-6.05,12.7-8.73
					C1090.73,3619.09,1153.45,3572.49,1216.59,3526.44z"/>
				<path d="M1629.43,3525.12c49.98,37.53,100.33,74.59,150.64,111.73c16.55,12.22,33.23,24.28,51.25,37.49c0-182.23,0-362,0-543.29
					c-42.08,0-83.46,0-126.27,0c-28.92,0-56.46,0-84.27,0c-0.45,3.58-0.9,5.37-0.9,7.16c-0.04,123.88-0.12,247.79,0.37,371.67
					C1620.29,3515.02,1624.92,3521.71,1629.43,3525.12z"/>
				<path class="st1" d="M1398.66,3240.05c0.1,0.1,0.2,0.21,0.31,0.32c0-0.07-0.02-0.13-0.02-0.2
					C1398.85,3240.13,1398.76,3240.09,1398.66,3240.05z"/>
				<path class="st1" d="M1621.44,3601.69c-40.28-73.98-80.75-147.88-121.15-221.83c-11.59-21.23-23.76-43.12-35.52-64.64
					c-4.26-7.81-4.34-17.4,0.13-25.09c2.25-3.86,3.96-7.89,5.65-9.96c25.03-31.57,44.82-97.82,26.14-111.21
					c-38.46-27.54-70.54-28.2-112.13-19.31c-51.08,10.92-65.79,24.22-43.22,81.13c14.83,37.38,12.66,36.01,22.36,52.59
					c4.14,7.06,9.96,16.74,6.36,24.13c-48.43,99.12-96.41,198.39-144.33,297.76c-1.39,2.87-1.77,6.15-1.85,9.43
					c-0.08,2.13,1.47,3.99,3.64,4.49c1.35,0.29,2.58,0.63,3.77,0.91c0.49,0.04,0.98,0.13,1.47,0.17
					c127.87-1.37,255.73-2.78,385.68-4.4c3.12-0.21,4.15-0.21,5.58-1.12C1623.49,3609.75,1623.37,3605.29,1621.44,3601.69z
					 M1394.34,3206.21c0.78-1.94,1.72-3.69,2.95-4.97c0.32-0.32,0.69-0.54,1.01-0.84c4.93-5.48,11.98-9,19.92-9h0.01
					c6.28-0.52,12.48,0.84,17.77,3.97c1.18,2.72,3.13,6.62,5.18,10.29c0.29,2.16,0.53,4.07,0.66,4.85c0.3,2.29,0.31,2.17,0.57,5.35
					c0.33,2.35,0.48,2.23,0.68,4.72c0.03,0.28,0.05,0.55,0.07,0.82c0,0.03,0,0.05-0.01,0.07c-0.55,3.42-1.5,6.76-1.67,10.23
					c-0.04,0.21-0.1,0.57-0.14,0.71c-0.2,1.25-0.69,2.49-1,3.74c-0.29,0.38-0.59,0.75-0.9,1.1c-0.12,0.51-0.39,0.92-0.56,1.41
					c-0.27,0.78-0.48,1.62-0.92,2.28c-0.12,0.21-0.32,0.38-0.44,0.58c-0.16,0.53-0.38,1.03-0.59,1.54c-0.29,0.71-0.63,1.4-0.99,2.07
					c-0.2,0.36-0.38,0.71-0.6,1.06c2.34-0.78,4.67-1.67,6.84-2.82c-1.75,3.2-4.76,5.61-8.1,7.12c-1.75,0.79-3.59,1.37-5.47,1.81
					c-1.71,0.89-3.58,1.53-5.63,1.81c-2.34,0.31-4.55,0.15-6.61-0.37c-1.94-0.48-3.71-1.27-5.31-2.34
					c-0.31-0.05-0.64-0.06-0.95-0.12c-0.17-0.03-0.33-0.06-0.5-0.1c-1.93-0.36-3.82-0.9-5.48-1.94c-3.05-1.88-4.95-5.34-5.18-8.89
					c-0.1-0.11-0.2-0.22-0.3-0.32c0.1,0.04,0.19,0.08,0.29,0.12c1.14,0.47,2.26,1,3.31,1.66c0.79,0.48,1.54,1.04,2.31,1.58
					c-0.05-0.13-0.13-0.24-0.18-0.38c-1.27-1.12-2.38-2.37-3.24-3.87c-0.02-0.03-0.03-0.07-0.04-0.1c-5.93-4.96-9.8-12.32-9.8-20.67
					C1391.31,3213.99,1392.47,3209.88,1394.34,3206.21z M1342.11,3542.57c-7.87,12.34-15.4,24.22-23.19,36.48
					c-2.25,3.53-7.37,3.53-9.54-0.05c-0.04-0.08-0.12-0.21-0.16-0.29c-6.77-12.79-12.87-24.46-19.22-36.56
					c-2.01-3.82,0.7-8.43,4.95-8.43h42.45C1341.86,3533.68,1344.53,3538.75,1342.11,3542.57z M1443.47,3542.41
					c-7.37,12.58-14.67,24.96-22.36,38.06c-2.09,3.53-7.05,3.77-9.5,0.46c-3.48-4.74-6.68-9.1-9.88-13.5
					c-5.78-8.77-10.98-16.62-16.43-24.76c-2.53-3.81,0.13-8.93,4.67-8.93h48.67C1443.02,3533.72,1445.72,3538.59,1443.47,3542.41z
					 M1560.11,3542.7c-9.38,13.41-18.52,26.45-28.18,40.29c-2.17,3.07-6.64,3.28-9.06,0.37c-4.87-5.89-9.46-11.42-14.01-16.95
					c-6.55-8.23-12.53-15.66-18.72-23.42c-2.99-3.74-0.36-9.35,4.39-9.35h61C1560.11,3533.64,1562.77,3538.88,1560.11,3542.7z
					 M1553.84,3522.47c-87.76,0.25-175.47,0.25-263.23,0c-1.07-0.25-2.13-0.5-3.2-0.75c-6.92-3.49-7.62-4.7-3.89-6.49
					c2.74-1.32,7.58-2.32,10.61-2.32c53.39-0.33,106.77-0.21,160.11-0.21c35.14,0,67.34-0.21,99.6,0.25c0.28,0,0.57,0.09,0.82,0.21
					C1565.72,3518.35,1565.6,3518.64,1553.84,3522.47z"/>
				<path class="st1" d="M1406.05,3246.22c-0.57-0.89-1.07-1.82-1.48-2.81c-0.76-0.54-1.52-1.1-2.31-1.58
					c-1.05-0.65-2.16-1.2-3.31-1.66c0,0.07,0.02,0.13,0.02,0.2C1401.12,3242.59,1403.42,3244.72,1406.05,3246.22z"/>
				<path class="st1" d="M1411.07,3251.41c-0.31-0.05-0.64-0.06-0.95-0.12c-0.17-0.03-0.33-0.06-0.5-0.1
					c-1.93-0.36-3.82-0.9-5.48-1.94c-3.05-1.88-4.95-5.34-5.18-8.89c2.16,2.22,4.46,4.35,7.09,5.85c1.2,1.9,2.73,3.56,4.54,4.85
					C1410.75,3251.2,1410.91,3251.3,1411.07,3251.41z"/>
			</g>
			<path class="st2" d="M1434.47,3198.55h-28.32c-10.28,0-10.27,44.19,0,44.6c3.51,0.14,24.8,0.14,28.32,0
				C1444.74,3242.74,1444.75,3198.55,1434.47,3198.55z"/>
			<g>
				<g>
					<path class="st1" d="M1414.02,3245.69c0.57-0.03,1.14-0.04,1.7-0.11c0.27-0.03,0.53-0.01,0.8,0.05
						c0.12,0.03,0.24,0.07,0.36,0.06c0.11-0.01,0.21-0.06,0.32-0.06c0.1-0.01,0.19-0.16,0.28-0.16c-0.45,0.01-0.91,0.12-1.35,0.18
						c-0.48,0.07-0.95,0.14-1.43,0.2c-0.46,0.05-0.92,0.12-1.37,0.18c-0.48,0.06-0.95,0.08-1.43,0.09c-0.09,0-0.19,0.16-0.28,0.16
						c0.24,0.02,0.48-0.05,0.71-0.11c0.23-0.06,0.47-0.11,0.71-0.16c0.53-0.11,1.07-0.19,1.61-0.26c0.53-0.07,1.06-0.15,1.59-0.19
						c0.27-0.02,0.53-0.04,0.8-0.05c0.13-0.01,0.25-0.01,0.38-0.01c0.07,0,0.16-0.01,0.23,0.01c0.06,0.01,0.1,0,0.03,0.04
						c0.09-0.05,0.17-0.1,0.26-0.15c-0.19,0.1-0.43,0.1-0.64,0.12c-0.34,0.03-0.67,0.08-1.01,0.12c-0.78,0.1-1.55,0.2-2.33,0.31
						c-1.56,0.22-3.13,0.43-4.71,0.42c-0.09,0.05-0.19,0.1-0.28,0.16c1.34-0.09,2.68-0.25,4.01-0.38c1.34-0.13,2.69-0.2,4.04-0.26
						c0.77-0.03,1.54-0.08,2.3-0.14c0.09-0.01,0.19-0.16,0.28-0.16c-1.56-0.01-3.11,0.14-4.67,0.25c-1.57,0.11-3.13,0.18-4.71,0.21
						c-0.17,0-1.01,0.13-1.03-0.11c-0.09,0.05-0.19,0.1-0.28,0.16c0.62-0.22,1.28-0.34,1.93-0.47c0.69-0.14,1.39-0.26,2.09-0.35
						c1.4-0.19,2.81-0.31,4.22-0.4c0.76-0.05,1.55,0,2.31-0.12c0.07-0.01,0.22-0.17,0.28-0.16c-0.73-0.2-1.52-0.11-2.27-0.1
						c-0.84,0.01-1.68,0.03-2.51,0.07c-1.66,0.07-3.33,0.15-4.98,0.28c-0.91,0.07-1.85,0.08-2.74,0.29
						c-0.07,0.02-0.22,0.17-0.28,0.16c0.26,0.06,0.49,0.01,0.75-0.02c0.26-0.02,0.52-0.04,0.77-0.06c0.49-0.04,0.98-0.08,1.47-0.11
						c1.04-0.06,2.08-0.11,3.13-0.15c2.08-0.07,4.16-0.05,6.23,0.01c1.12,0.03,2.26,0.16,3.38,0.05c0.08-0.01,0.2-0.17,0.28-0.16
						c-0.6-0.11-1.23-0.05-1.84-0.05c-0.64,0-1.27,0-1.91,0c-1.28,0.01-2.56,0.04-3.84,0.09c-2.53,0.1-5.04,0.33-7.55,0.59
						c-0.71,0.08-1.41,0.15-2.12,0.22c-0.33,0.03-0.67,0.06-1.01,0.09c-0.32,0.03-0.66,0-0.96,0.14c-0.08,0.04-0.19,0.15-0.28,0.16
						c2.26-0.24,4.53-0.45,6.8-0.57c2.28-0.12,4.56-0.12,6.84-0.12c0.55,0,1.11,0,1.66,0c0.28,0,0.57,0,0.85,0
						c0.13,0,0.23,0.01,0.36,0.06c0.09,0.03,0.19,0.06,0.28,0.03c0.1-0.03,0.19-0.1,0.27-0.15c0.04-0.02,0.07-0.04,0.1-0.07
						c0.01-0.02,0.06-0.09,0.05-0.11c0-0.01-0.22-0.03-0.23-0.03c-0.57-0.08-1.13-0.13-1.7-0.16c-2.25-0.13-4.51-0.16-6.76-0.17
						c-1.26-0.01-2.52,0.01-3.79,0.06c-0.6,0.02-1.2,0.06-1.81,0.08c-0.55,0.01-1.11,0.01-1.63,0.19c-0.07,0.03-0.21,0.16-0.28,0.16
						c0.66,0.07,1.3,0.01,1.95-0.02c0.63-0.03,1.26-0.05,1.9-0.08c1.27-0.05,2.53-0.09,3.8-0.14c2.57-0.09,5.14-0.14,7.71-0.11
						c1.27,0.02,2.54,0.05,3.82,0.08c0.31,0.01,0.63,0.02,0.94,0.02c0.16,0,0.31,0.01,0.47,0.01c0.14,0,0.27,0.03,0.41,0.04
						c0.17,0.02,0.29-0.06,0.43-0.14c0.06-0.03,0.12-0.06,0.17-0.1c0.01-0.01,0.08-0.06,0.08-0.07c0-0.02-0.23-0.07-0.25-0.07
						c-1.07-0.27-2.2-0.19-3.29-0.17c-1.27,0.01-2.54,0.05-3.81,0.12c-1.43,0.08-2.85,0.21-4.27,0.36c-0.7,0.08-1.41,0.16-2.11,0.24
						c-0.69,0.08-1.38,0.14-2.04,0.37c-0.05,0.02-0.24,0.17-0.28,0.16c0.27,0.12,0.56,0.15,0.85,0.08c0.32-0.07,0.66-0.07,0.99-0.1
						c0.68-0.06,1.36-0.12,2.04-0.18c1.34-0.11,2.68-0.21,4.02-0.31c2.68-0.2,5.36-0.4,8.05-0.48c0.75-0.02,1.49-0.04,2.23-0.04
						c0.39,0,0.77-0.01,1.16,0c0.38,0,0.75-0.02,1.12,0.06c0.09-0.05,0.19-0.1,0.28-0.16c-1.17,0.01-2.33-0.07-3.5-0.09
						c-1.19-0.03-2.38-0.05-3.57-0.07c-2.39-0.04-4.78-0.06-7.17,0.01c-0.66,0.02-1.31,0.05-1.96,0.08
						c-0.66,0.03-1.32-0.01-1.97,0.15c-0.09,0.02-0.19,0.16-0.28,0.16c1.19,0.01,2.37-0.07,3.56-0.14c1.17-0.07,2.33-0.14,3.5-0.19
						c2.35-0.11,4.71-0.22,7.06-0.22c1.32,0,2.62,0.11,3.94,0.18c0.09-0.05,0.19-0.1,0.28-0.16c-1.9,0.06-3.8,0.05-5.69,0.07
						c-1.9,0.03-3.79,0.11-5.68,0.22c-1.05,0.07-2.11,0.15-3.16,0.15c-0.09,0.05-0.19,0.1-0.28,0.16c0.88-0.17,1.78-0.24,2.68-0.33
						c0.93-0.09,1.86-0.19,2.79-0.28c1.87-0.18,3.73-0.38,5.6-0.52c0.52-0.04,1.04-0.07,1.56-0.08c0.25-0.01,0.51-0.01,0.76-0.02
						c0.28-0.01,0.52,0.06,0.8,0c0.08-0.02,0.2-0.16,0.28-0.16c-1.9-0.13-3.8-0.21-5.7-0.2c-1.88,0.01-3.76,0.1-5.64,0.22
						c-1.04,0.07-2.1,0.13-3.12,0.33c-0.08,0.02-0.2,0.16-0.28,0.16c0.51,0.04,1.02-0.02,1.53-0.09c0.54-0.08,1.09-0.13,1.63-0.18
						c1.15-0.1,2.29-0.18,3.44-0.24c2.32-0.11,4.64-0.15,6.96-0.09c0.63,0.02,1.26,0.04,1.89,0.08c0.31,0.02,0.61,0.03,0.91,0.06
						c0.15,0.01,0.3,0.03,0.45,0.05c0.07,0.01,0.15,0.02,0.22,0.03c0.05,0.01,0.1,0.02,0.15,0.03c0.09,0,0.1,0.01,0.03,0.05
						c0.09-0.05,0.19-0.1,0.28-0.16c-0.14,0.07-0.29,0.02-0.45,0.03c-0.2,0-0.4,0.01-0.6,0.01c-0.39,0-0.77,0.01-1.16,0.03
						c-0.77,0.03-1.55,0.06-2.32,0.09c-1.54,0.06-3.07,0.11-4.6,0.22c-0.84,0.06-1.7,0.09-2.53,0.25c-0.1,0.02-0.18,0.15-0.28,0.16
						c0.76-0.04,1.52-0.13,2.27-0.19c0.75-0.06,1.5-0.11,2.25-0.16c1.52-0.1,3.04-0.18,4.56-0.26c0.84-0.04,1.7-0.05,2.54-0.12
						c0.09-0.01,0.19-0.16,0.28-0.16c-1.03-0.08-2.07-0.09-3.11-0.1c-1.02-0.02-2.03-0.02-3.05-0.01c-2.03,0.03-4.08,0.09-6.1,0.33
						c-0.51,0.06-1.03,0.1-1.53,0.21c-0.34,0.07-0.63,0.22-0.92,0.4c0.06-0.04,0.19-0.1,0.27-0.15c-0.13,0.08,0.12-0.02,0.16-0.03
						c0.09-0.03,0.19-0.05,0.28-0.06c0.19-0.03,0.39-0.05,0.58-0.08c0.45-0.06,0.9-0.12,1.36-0.16c0.94-0.09,1.89-0.14,2.83-0.19
						c1.91-0.09,3.82-0.11,5.73-0.08c1.08,0.02,2.16,0.03,3.23,0.11c0.09-0.05,0.19-0.1,0.28-0.16c-0.74,0.06-1.48,0.07-2.22,0.1
						c-0.75,0.04-1.51,0.07-2.26,0.11c-1.52,0.08-3.03,0.18-4.55,0.3c-0.86,0.07-1.72,0.17-2.59,0.22c-0.09,0.05-0.19,0.1-0.28,0.16
						c0.96-0.17,1.95-0.21,2.93-0.27s1.95-0.1,2.93-0.14c1.01-0.04,2.02-0.08,3.04-0.12c0.49-0.02,0.99-0.04,1.48-0.04
						c0.24,0,0.48-0.01,0.72-0.01c0.19,0,0.4,0.05,0.57-0.03c0.09-0.04,0.17-0.09,0.25-0.15c0.11-0.07,0.01-0.05-0.08-0.07
						c-0.13-0.02-0.25-0.04-0.38-0.05c-0.48-0.06-0.96-0.08-1.44-0.11c-0.99-0.05-1.98-0.08-2.97-0.09
						c-1.99-0.01-3.98,0.02-5.97,0.12c-1.11,0.06-2.22,0.13-3.32,0.24c-0.52,0.05-1.03,0.1-1.55,0.17
						c-0.49,0.07-0.99,0.13-1.49,0.09c-0.09,0.05-0.19,0.1-0.28,0.16c0.91-0.18,1.85-0.24,2.77-0.31c0.94-0.07,1.89-0.11,2.83-0.16
						c1.89-0.1,3.77-0.11,5.66-0.05c1.07,0.03,2.14,0.09,3.2,0.17c0.09-0.05,0.19-0.1,0.28-0.16c-0.24,0.05-0.44,0.02-0.68,0
						c-0.22-0.02-0.47,0.01-0.69,0.02c-0.47,0.01-0.93,0.03-1.4,0.06c-0.94,0.06-1.88,0.16-2.81,0.25c-1.87,0.18-3.74,0.37-5.6,0.55
						c-1.01,0.1-2.01,0.16-3.01,0.35c-0.09,0.02-0.19,0.16-0.28,0.16c1.88-0.01,3.76-0.21,5.64-0.29c1.9-0.09,3.79-0.1,5.69-0.11
						c1.07-0.01,2.14-0.02,3.21-0.05c0.09,0,0.19-0.16,0.28-0.16c-1.18-0.06-2.36-0.17-3.55-0.17c-1.15-0.01-2.31,0.03-3.46,0.07
						c-2.37,0.07-4.73,0.18-7.09,0.32c-1.32,0.08-2.63,0.17-3.95,0.16c-0.09,0.05-0.19,0.1-0.28,0.16c0.57-0.15,1.15-0.12,1.74-0.14
						c0.57-0.03,1.14-0.05,1.72-0.07c1.19-0.04,2.39-0.06,3.58-0.07c2.38-0.01,4.77,0.05,7.15,0.1c0.66,0.01,1.31,0.02,1.97,0.04
						c0.67,0.02,1.34,0.06,2,0.06c0.08,0,0.2-0.17,0.28-0.16c-0.32-0.07-0.64-0.06-0.96-0.06c-0.33,0-0.67,0-1,0
						c-0.68,0-1.36,0.02-2.03,0.03c-1.34,0.03-2.69,0.09-4.03,0.17c-2.68,0.16-5.36,0.37-8.04,0.59c-0.75,0.06-1.49,0.13-2.23,0.19
						c-0.38,0.03-0.78,0.04-1.16,0.09c-0.17,0.03-0.33,0.07-0.5,0.07c-0.18-0.01-0.34-0.05-0.5-0.12c-0.09,0.05-0.19,0.1-0.28,0.16
						c0.57-0.19,1.16-0.27,1.75-0.33c0.59-0.07,1.18-0.14,1.77-0.21c1.23-0.14,2.47-0.26,3.71-0.35c1.24-0.09,2.49-0.15,3.73-0.18
						c1.13-0.03,2.28-0.09,3.41-0.02c0.25,0.02,0.5,0.04,0.75,0.09c0.13,0.02,0.27,0.05,0.4,0.08c0.06,0.02,0.14,0.03,0.19,0.05
						c0.06,0,0.08,0.01,0.04,0.04c-0.05,0.05-0.02,0.03,0.09-0.04c0,0-0.13,0.02-0.15,0.02c-0.06,0-0.11-0.02-0.17-0.03
						c-0.15-0.03-0.3-0.02-0.45-0.03c-0.31-0.01-0.63-0.01-0.94-0.02c-1.24-0.03-2.49-0.07-3.73-0.09c-2.48-0.04-4.96,0-7.44,0.08
						c-1.39,0.04-2.77,0.09-4.16,0.15c-0.68,0.03-1.37,0.05-2.05,0.09c-0.71,0.03-1.4,0.1-2.11,0.03c-0.09,0.05-0.19,0.1-0.28,0.16
						c0.45-0.15,0.93-0.17,1.4-0.18c0.48-0.01,0.97-0.03,1.46-0.06c1.09-0.05,2.18-0.08,3.27-0.08c2.17-0.01,4.34,0.03,6.5,0.11
						c0.6,0.02,1.19,0.04,1.79,0.09c0.3,0.02,0.59,0.05,0.89,0.09c0.15,0.02,0.31,0.04,0.46,0.06c0.02,0,0.15,0.02,0.15,0.03
						c0.02,0.04-0.08,0.13-0.11,0.15c0.09-0.05,0.18-0.1,0.27-0.16c-0.19,0.08-0.37-0.07-0.56-0.07c-0.27,0-0.54,0-0.81,0
						c-0.55,0-1.1,0-1.65,0c-1.11,0-2.23,0-3.34,0.01c-2.24,0.03-4.47,0.14-6.71,0.32c-1.25,0.1-2.51,0.23-3.75,0.36
						c-0.09,0.05-0.19,0.1-0.28,0.16c0.26-0.12,0.52-0.1,0.8-0.12c0.31-0.03,0.62-0.05,0.93-0.09c0.63-0.06,1.25-0.13,1.88-0.19
						c1.27-0.14,2.54-0.27,3.81-0.38c2.52-0.22,5.05-0.32,7.58-0.35c0.72-0.01,1.43-0.01,2.15-0.01c0.34,0,0.68,0,1.03,0
						c0.35,0,0.7-0.02,1.05,0.05c0.09-0.05,0.19-0.1,0.28-0.16c-0.99,0.1-1.99-0.02-2.98-0.04c-1.05-0.03-2.09-0.06-3.14-0.07
						c-2.07-0.02-4.15,0.05-6.22,0.17c-0.56,0.03-1.12,0.08-1.68,0.12c-0.28,0.02-0.57,0.04-0.85,0.07
						c-0.29,0.02-0.58,0.09-0.87,0.03c-0.09,0.05-0.19,0.1-0.28,0.16c0.78-0.19,1.59-0.2,2.39-0.26c0.83-0.07,1.65-0.13,2.48-0.18
						c1.67-0.09,3.35-0.17,5.02-0.19c0.45-0.01,0.9-0.01,1.35-0.02c0.43-0.01,0.86,0.01,1.28,0.12c0.09-0.05,0.19-0.1,0.28-0.16
						c-0.67,0.11-1.35,0.07-2.03,0.1c-0.71,0.04-1.43,0.09-2.14,0.16c-1.4,0.13-2.8,0.28-4.18,0.55c-0.74,0.14-1.49,0.27-2.2,0.52
						c-0.03,0.01-0.28,0.14-0.28,0.16c0.02,0.22,0.78,0.12,0.93,0.11c0.71-0.03,1.42-0.03,2.13-0.06c1.57-0.07,3.13-0.19,4.7-0.3
						c0.88-0.06,1.77-0.1,2.65-0.1c0.09-0.05,0.19-0.1,0.28-0.16c-1.35,0.12-2.7,0.15-4.05,0.22c-1.35,0.07-2.68,0.22-4.02,0.36
						c-0.76,0.08-1.52,0.15-2.28,0.2c-0.09,0.01-0.19,0.16-0.28,0.16c2.23,0.01,4.44-0.4,6.65-0.68c0.48-0.06,0.95-0.13,1.43-0.17
						c0.3-0.03,0.54-0.08,0.8-0.23c0.03-0.02,0.08-0.03,0.1-0.06c0.01-0.01,0.04-0.02,0.05-0.04c0,0-0.21-0.01-0.23-0.02
						c-0.28-0.01-0.56,0.01-0.83,0.03c-0.53,0.04-1.06,0.09-1.59,0.16c-0.6,0.08-1.21,0.16-1.81,0.27
						c-0.29,0.06-0.58,0.11-0.87,0.19c-0.25,0.06-0.5,0.14-0.77,0.13c-0.09,0.05-0.19,0.1-0.28,0.16c0.47-0.01,0.93-0.02,1.39-0.08
						c0.47-0.06,0.94-0.13,1.41-0.18c0.47-0.05,0.92-0.12,1.39-0.19c0.24-0.03,0.48-0.06,0.72-0.1c0.22-0.03,0.44-0.08,0.67-0.09
						c0.09-0.05,0.19-0.1,0.28-0.16c-0.11,0.01-0.21,0.05-0.32,0.06c-0.11,0.01-0.22-0.03-0.33-0.05c-0.28-0.06-0.55-0.09-0.83-0.05
						c-0.56,0.07-1.13,0.09-1.7,0.11C1414.2,3245.54,1414.11,3245.69,1414.02,3245.69L1414.02,3245.69z"/>
				</g>
			</g>
		</g>
		<g>
			<path d="M1698.11,943.82c-60.94-53.07-142.67-79.59-245.18-79.59h-444.67v1029.15h211.94v-370.05H1437
				c113.13,0,200.17-25.13,261.11-75.41s91.42-136.15,91.42-257.64C1789.54,1079.04,1759.05,996.87,1698.11,943.82z M1536.4,1308.98
				c-27.95,24.69-67.08,37.02-117.4,37.02H1220.2v-303.02H1419c50.32,0,89.45,11.4,117.4,34.2c27.93,22.82,41.89,60.98,41.89,114.51
				S1564.33,1284.31,1536.4,1308.98z"/>
			<path d="M1839.3,864.22h211.94v1029.14H1839.3V864.22z"/>
			<path d="M2584.45,1921.99c-146.83,0-262.27-47.48-346.32-142.43c-84.04-95.42-126.06-226.22-126.06-392.39
				c0-179.66,47.8-318.13,143.37-415.43c83.11-84.71,188.85-127.08,317.22-127.08c171.77,0,297.36,56.8,376.79,170.36
				c43.86,63.77,67.41,127.77,70.65,192h-213.33c-13.85-49.33-31.63-86.58-53.33-111.71c-38.78-44.69-96.28-67.03-172.46-67.03
				c-77.57,0-138.77,31.54-183.54,94.6c-44.8,63.08-67.18,152.32-67.18,267.76s23.66,201.89,70.99,259.38
				c47.32,57.49,107.46,86.23,180.42,86.23c74.81,0,131.83-24.66,171.08-74.01c21.7-26.53,39.71-66.33,54.02-119.39h211.25
				c-18.47,112.18-65.69,203.41-141.64,273.69C2800.42,1886.85,2703.11,1921.99,2584.45,1921.99z"/>
			<path d="M3694.6,864.22h275.66l-418.34,423.8l439.81,605.33h-274.28l-315.14-449.63l-101.82,105.43v344.21h-209.87V864.22h209.87
				v423.8L3694.6,864.22z"/>
			<path d="M2638.19,3205.77c-60.95-53.05-142.69-79.58-245.18-79.58h-444.67v1029.13h211.94v-370.03h216.8
				c113.12,0,200.16-25.14,261.11-75.42c60.94-50.26,91.42-136.15,91.42-257.62C2729.61,3341.01,2699.13,3258.85,2638.19,3205.77z
				 M2476.46,3570.93c-27.95,24.68-67.08,37.01-117.4,37.01h-198.78v-303.02h198.78c50.32,0,89.45,11.41,117.4,34.22
				c27.93,22.82,41.91,60.98,41.91,114.51C2518.37,3507.18,2504.39,3546.28,2476.46,3570.93z"/>
		</g>
		<ellipse class="st3" cx="2959.46" cy="4087.55" rx="99.93" ry="99.93"/>
	</g>
</g>
<g id="Me">
	<g>
		<path d="M2837.07,2186.48l116.5-191.27l-577.49,2.82l-65.86,77.18l91.01-0.31l-162.56,173.57l113.04-1.35l-165.83,198.67
			l-274.31,312.57l139.46-234.76l117.84-209.33l-108.72-4.48l108.72-115.94l71.5-73.73l-95.96-2.51l109.47-122.43h-85.01
			l-166.27,349.59l0.54-349.59H1695.3l-184.24,809.21l-185.62-809.21h-310.29v1029.16h198.78v-469.88c0-20.02-0.24-48.06-0.69-84.14
			c-0.46-36.08-0.69-63.88-0.69-83.44l191.86,637.45h207.09l244.41-637.46c0,19.55-0.24,47.37-0.69,83.44
			c-0.46,36.09-0.69,64.14-0.69,84.14v127.56l-130.32,342.33h678.99l107.24-183.04h-437.89l118.1-261.79h417.41l101.74-176.85
			h-417.89l118.33-216.19H2837.07z"/>
	</g>
</g>
</svg>
